<svg width="12" height="11" viewBox="0 0 12 11" fill="none" xmlns="http://www.w3.org/2000/svg">
<path fill-rule="evenodd" clip-rule="evenodd" d="M6.00001 1.16665C3.60678 1.16665 1.66668 3.10675 1.66668 5.49998C1.66668 7.89321 3.60678 9.83331 6.00001 9.83331C8.39324 9.83331 10.3333 7.89321 10.3333 5.49998C10.3333 3.10675 8.39324 1.16665 6.00001 1.16665ZM0.583344 5.49998C0.583344 2.50844 3.00847 0.083313 6.00001 0.083313C8.99155 0.083313 11.4167 2.50844 11.4167 5.49998C11.4167 8.49152 8.99155 10.9166 6.00001 10.9166C3.00847 10.9166 0.583344 8.49152 0.583344 5.49998Z" fill="#0152FF"/>
<path fill-rule="evenodd" clip-rule="evenodd" d="M6.00001 4.41665C6.29916 4.41665 6.54168 4.65916 6.54168 4.95831V8.20831C6.54168 8.50747 6.29916 8.74998 6.00001 8.74998C5.70086 8.74998 5.45834 8.50747 5.45834 8.20831V4.95831C5.45834 4.65916 5.70086 4.41665 6.00001 4.41665Z" fill="#0152FF"/>
<path d="M6.81251 3.06248C6.81251 3.51121 6.44874 3.87498 6.00001 3.87498C5.55128 3.87498 5.18751 3.51121 5.18751 3.06248C5.18751 2.61375 5.55128 2.24998 6.00001 2.24998C6.44874 2.24998 6.81251 2.61375 6.81251 3.06248Z" fill="#0152FF"/>
</svg>
