<svg width="15" height="17" viewBox="0 0 15 17" fill="none" xmlns="http://www.w3.org/2000/svg">
<path d="M11.3514 7.43722C9.74049 7.43722 8.42968 8.74803 8.42968 10.359C8.42968 11.9699 9.74049 13.2808 11.3514 13.2808C12.9624 13.2808 14.2732 11.9699 14.2732 10.359C14.2732 8.74803 12.9624 7.43722 11.3514 7.43722ZM12.5902 9.89018C11.7409 11.1644 11.9817 10.8031 11.5277 11.4839C11.3647 11.7284 11.0346 11.7933 10.791 11.631L9.99415 11.0997C9.75012 10.937 9.68438 10.6073 9.84706 10.363C10.0098 10.1189 10.3394 10.0532 10.5838 10.2159L10.9384 10.4523C11.7857 9.18162 11.7401 9.21678 11.8827 9.1355C12.3665 8.85561 12.9011 9.42316 12.5902 9.89018ZM8.96091 13.5444V16.4681C8.96091 16.8752 9.40176 17.1317 9.75576 16.9293L11.3514 16.0176L12.9471 16.9293C13.2997 17.1314 13.742 16.8763 13.742 16.4681V13.5444C12.3266 14.6092 10.3783 14.6108 8.96091 13.5444ZM12.4139 6.51886V1.15377C12.4139 0.517617 11.8963 0 11.2601 0H1.8806C1.24445 0 0.726837 0.517617 0.726837 1.15377V13.4551C0.726837 14.0912 1.24445 14.6088 1.8806 14.6088H7.89845C7.89845 12.3228 7.89489 12.4643 7.90675 12.3591C6.12839 9.31024 8.96014 5.55972 12.4139 6.51886ZM3.91422 2.65615H8.42968C8.72318 2.65615 8.96091 2.89388 8.96091 3.18738C8.96091 3.48089 8.72318 3.71861 8.42968 3.71861H3.91422C3.62071 3.71861 3.38299 3.48089 3.38299 3.18738C3.38299 2.89388 3.62071 2.65615 3.91422 2.65615ZM6.57037 7.96845H3.91422C3.62071 7.96845 3.38299 7.73073 3.38299 7.43722C3.38299 7.14372 3.62071 6.90599 3.91422 6.90599H6.57037C6.86387 6.90599 7.1016 7.14372 7.1016 7.43722C7.1016 7.73073 6.86387 7.96845 6.57037 7.96845ZM3.91422 5.84353C3.62071 5.84353 3.38299 5.60581 3.38299 5.3123C3.38299 5.0188 3.62071 4.78107 3.91422 4.78107H8.42968C8.72318 4.78107 8.96091 5.0188 8.96091 5.3123C8.96091 5.60581 8.72318 5.84353 8.42968 5.84353H3.91422Z" fill="#20C4F4"/>
</svg>
