<svg width="17" height="17" viewBox="0 0 17 17" fill="none" xmlns="http://www.w3.org/2000/svg">
<g clip-path="url(#clip0_0_287)">
<path fill-rule="evenodd" clip-rule="evenodd" d="M14.7624 13.4348C14.676 13.5209 14.5719 13.6309 14.4616 13.7473C14.1861 14.0396 13.842 14.403 13.6264 14.5504C12.4917 15.3257 10.9736 14.9547 9.89981 14.5073C8.48329 13.9171 6.94109 12.8292 5.55636 11.4443C4.17034 10.0593 3.08255 8.51664 2.49235 7.10094C2.04547 6.02691 1.67368 4.50855 2.44918 3.37359C2.59645 3.15777 2.96068 2.81421 3.25262 2.53824C3.36941 2.4282 3.47859 2.32422 3.56492 2.23817C3.71819 2.08567 3.9256 2.00006 4.14181 2.00006C4.35802 2.00006 4.56543 2.08567 4.7187 2.23817L6.80652 4.32539C6.95894 4.47864 7.04449 4.686 7.04449 4.90215C7.04449 5.11829 6.95894 5.32565 6.80652 5.47891L6.23777 6.04651C6.04782 6.23507 5.92384 6.47991 5.88427 6.74461C5.84471 7.00931 5.89167 7.27971 6.01816 7.51556C6.80044 8.99204 8.00814 10.1995 9.48475 10.9816C9.72055 11.108 9.9909 11.1549 10.2555 11.1153C10.5201 11.0757 10.7649 10.9516 10.9533 10.7616L11.5206 10.194C11.6739 10.0415 11.8813 9.95586 12.0975 9.95586C12.3137 9.95586 12.5212 10.0415 12.6744 10.194L14.7624 12.2815C14.9148 12.4347 15.0004 12.6421 15.0004 12.8582C15.0004 13.0743 14.9148 13.2816 14.7624 13.4348Z" fill="#20C4F4"/>
</g>
<defs>
<clipPath id="clip0_0_287">
<rect width="13" height="13" fill="white" transform="translate(2 2)"/>
</clipPath>
</defs>
</svg>
